<?xml version="1.0" encoding="utf-8"?>
<!-- Generator: Adobe Illustrator 27.9.0, SVG Export Plug-In . SVG Version: 6.00 Build 0)  -->
<svg version="1.1" id="Layer_1" xmlns="http://www.w3.org/2000/svg" xmlns:xlink="http://www.w3.org/1999/xlink" x="0px" y="0px"
	 viewBox="0 0 304.57 96.57" style="enable-background:new 0 0 304.57 96.57;" xml:space="preserve">
<g>
	<path d="M122.48,3.54c-2.51-1.44-5.51-2.16-9-2.16c-3.5,0-6.5,0.72-9,2.16c-2.51,1.44-4.43,3.44-5.78,6.02
		c-1.35,2.58-2.03,5.58-2.03,9c0,3.41,0.67,6.4,2.03,8.98c1.35,2.58,3.28,4.59,5.78,6.02c2.51,1.44,5.51,2.16,9,2.16
		c3.49,0,6.5-0.72,9-2.16c2.51-1.44,4.43-3.44,5.78-6.02c1.35-2.58,2.03-5.57,2.03-8.98c0-3.42-0.68-6.42-2.03-9
		C126.92,6.98,124.99,4.97,122.48,3.54z M118.8,23.3c-0.47,1.39-1.14,2.47-2.03,3.25s-1.96,1.17-3.23,1.17
		c-1.31,0-2.42-0.39-3.33-1.17s-1.59-1.86-2.06-3.25c-0.47-1.39-0.7-2.99-0.7-4.81c0-1.85,0.23-3.47,0.7-4.85
		c0.47-1.39,1.16-2.47,2.06-3.25c0.9-0.78,2.01-1.17,3.33-1.17c1.27,0,2.35,0.39,3.23,1.17c0.88,0.78,1.56,1.86,2.03,3.25
		s0.7,3,0.7,4.85C119.5,20.31,119.27,21.92,118.8,23.3z"/>
	<path d="M158.79,3.2c-2.01-1.21-4.18-1.82-6.49-1.82c-1.75,0-3.25,0.3-4.49,0.9c-1.25,0.6-2.27,1.37-3.08,2.31
		c-0.8,0.94-1.42,1.91-1.85,2.92h-0.33v-5.7h-10.48v45.75h10.59V29.69h0.22c0.45,1.03,1.09,1.99,1.92,2.88
		c0.83,0.9,1.86,1.62,3.09,2.17c1.23,0.55,2.68,0.82,4.35,0.82c2.46,0,4.69-0.64,6.7-1.91c2.01-1.27,3.62-3.18,4.81-5.72
		c1.19-2.54,1.79-5.7,1.79-9.47c0-3.91-0.62-7.13-1.86-9.66C162.43,6.29,160.8,4.41,158.79,3.2z M153.96,23.13
		c-0.47,1.33-1.16,2.36-2.07,3.09c-0.91,0.73-2.01,1.09-3.31,1.09c-1.29,0-2.39-0.36-3.3-1.09c-0.92-0.73-1.62-1.76-2.1-3.09
		c-0.48-1.33-0.73-2.89-0.73-4.68c0-1.82,0.24-3.39,0.73-4.7c0.48-1.31,1.18-2.33,2.09-3.03s2.01-1.06,3.31-1.06
		c1.31,0,2.42,0.36,3.33,1.08c0.9,0.72,1.59,1.74,2.06,3.05c0.47,1.31,0.7,2.87,0.7,4.66S154.43,21.8,153.96,23.13z"/>
	<path d="M173.99,33.65c2.52,1.38,5.52,2.07,9,2.07c2.9,0,5.46-0.44,7.67-1.33c2.21-0.89,4-2.14,5.36-3.75
		c1.37-1.61,2.25-3.51,2.65-5.69l-9.73-0.28c-0.27,0.74-0.69,1.36-1.24,1.86c-0.55,0.51-1.21,0.89-1.97,1.15
		c-0.77,0.26-1.62,0.39-2.56,0.39c-1.36,0-2.53-0.28-3.51-0.84c-0.98-0.56-1.74-1.35-2.27-2.37s-0.8-2.21-0.8-3.56v-0.28h22.18
		v-2.64c0-2.73-0.4-5.15-1.19-7.27c-0.79-2.12-1.91-3.9-3.34-5.34s-3.13-2.53-5.09-3.27c-1.96-0.74-4.13-1.1-6.5-1.1
		c-3.35,0-6.26,0.72-8.73,2.16c-2.47,1.44-4.38,3.44-5.74,6.02c-1.36,2.58-2.04,5.59-2.04,9.02c0,3.54,0.68,6.59,2.03,9.15
		C169.54,30.3,171.47,32.27,173.99,33.65z M177.47,11.96c0.55-0.9,1.29-1.62,2.23-2.14c0.94-0.53,2-0.79,3.18-0.79
		c1.17,0,2.21,0.25,3.11,0.75s1.61,1.19,2.13,2.07c0.52,0.88,0.79,1.88,0.8,3.01h-12.31C176.67,13.79,176.95,12.82,177.47,11.96z"/>
	<path d="M211.16,16.11c0.01-1.27,0.25-2.35,0.7-3.25s1.1-1.58,1.95-2.07c0.84-0.48,1.82-0.73,2.94-0.73c1.67,0,2.99,0.52,3.93,1.56
		c0.95,1.04,1.41,2.48,1.4,4.33v19.13h10.59V13.88c0.01-2.5-0.46-4.68-1.42-6.55c-0.96-1.87-2.3-3.33-4.03-4.38s-3.76-1.57-6.1-1.57
		c-2.46,0-4.57,0.58-6.35,1.74c-1.78,1.16-3.03,2.76-3.77,4.8h-0.37V1.82h-10.07v33.27h10.59V16.11z"/>
	<path d="M117.94,64.42l-6.41-1.21c-1.4-0.29-2.37-0.67-2.91-1.15c-0.54-0.48-0.81-1.04-0.79-1.69c-0.01-0.84,0.41-1.5,1.27-1.99
		c0.86-0.49,1.9-0.74,3.13-0.74c0.94,0,1.77,0.16,2.48,0.47s1.3,0.74,1.74,1.28c0.45,0.54,0.72,1.16,0.82,1.85l9.73-0.26
		c-0.27-3.29-1.71-5.88-4.31-7.77c-2.6-1.88-6.15-2.83-10.66-2.83c-3,0-5.61,0.42-7.82,1.26c-2.21,0.84-3.91,2.05-5.11,3.63
		c-1.2,1.58-1.79,3.48-1.78,5.71c-0.01,2.54,0.79,4.63,2.43,6.27c1.63,1.64,4.12,2.76,7.45,3.37l5.81,1.1
		c1.39,0.26,2.4,0.62,3.05,1.07c0.65,0.46,0.98,1.06,1,1.81c-0.01,0.84-0.45,1.51-1.3,2.01s-1.96,0.76-3.31,0.76
		c-1.5,0-2.74-0.32-3.7-0.95c-0.97-0.64-1.57-1.56-1.8-2.77l-10.46,0.26c0.39,3.29,1.95,5.92,4.69,7.87
		c2.74,1.96,6.48,2.94,11.23,2.94c2.97,0,5.62-0.47,7.93-1.4s4.13-2.24,5.47-3.93c1.34-1.69,2.01-3.67,2.03-5.96
		c-0.01-2.43-0.83-4.38-2.46-5.85C123.74,66.11,121.27,65.05,117.94,64.42z"/>
	<path d="M158.52,52.2c-2.01-1.21-4.18-1.82-6.49-1.82c-1.75,0-3.25,0.3-4.49,0.9c-1.25,0.6-2.27,1.37-3.08,2.31
		c-0.8,0.94-1.42,1.91-1.85,2.92h-0.33v-5.7H131.8v45.75h10.59V78.69h0.22c0.45,1.03,1.09,1.99,1.92,2.88
		c0.83,0.9,1.86,1.62,3.09,2.17c1.23,0.55,2.68,0.82,4.35,0.82c2.46,0,4.69-0.64,6.7-1.91c2.01-1.27,3.62-3.18,4.81-5.72
		c1.19-2.54,1.79-5.7,1.79-9.47c0-3.91-0.62-7.13-1.86-9.66C162.16,55.29,160.53,53.41,158.52,52.2z M153.69,72.13
		c-0.47,1.33-1.16,2.36-2.07,3.09c-0.91,0.73-2.01,1.09-3.31,1.09c-1.29,0-2.39-0.36-3.3-1.09c-0.92-0.73-1.62-1.76-2.1-3.09
		c-0.48-1.33-0.73-2.89-0.73-4.68c0-1.82,0.24-3.39,0.73-4.7c0.48-1.31,1.18-2.33,2.09-3.03s2.01-1.06,3.31-1.06
		c1.31,0,2.42,0.36,3.33,1.08c0.9,0.72,1.59,1.74,2.06,3.05c0.47,1.31,0.7,2.87,0.7,4.66S154.16,70.8,153.69,72.13z"/>
	<path d="M196.43,54.76c-1.43-1.44-3.13-2.53-5.09-3.27c-1.96-0.74-4.13-1.1-6.5-1.1c-3.35,0-6.26,0.72-8.73,2.16
		c-2.47,1.44-4.38,3.44-5.74,6.02c-1.36,2.58-2.04,5.59-2.04,9.02c0,3.54,0.68,6.59,2.03,9.15c1.35,2.56,3.29,4.53,5.81,5.91
		c2.52,1.38,5.52,2.07,9,2.07c2.9,0,5.46-0.44,7.67-1.33c2.21-0.89,4-2.14,5.36-3.75c1.37-1.61,2.25-3.51,2.65-5.69l-9.73-0.28
		c-0.27,0.74-0.69,1.36-1.24,1.86c-0.55,0.51-1.21,0.89-1.97,1.15c-0.77,0.26-1.62,0.39-2.56,0.39c-1.36,0-2.53-0.28-3.51-0.84
		c-0.98-0.56-1.74-1.35-2.27-2.37s-0.8-2.21-0.8-3.56v-0.28h22.18v-2.64c0-2.73-0.4-5.15-1.19-7.27
		C198.97,57.98,197.86,56.2,196.43,54.76z M178.79,63.86c0.05-1.07,0.33-2.04,0.85-2.89c0.55-0.9,1.29-1.62,2.23-2.14
		c0.94-0.53,2-0.79,3.18-0.79c1.17,0,2.21,0.25,3.11,0.75s1.61,1.19,2.13,2.07c0.52,0.88,0.79,1.88,0.8,3.01H178.79z"/>
	<path d="M230.26,53.3c-1.33-0.95-2.89-1.67-4.68-2.17c-1.79-0.5-3.75-0.75-5.87-0.75c-2.97,0-5.52,0.46-7.64,1.38
		c-2.12,0.92-3.78,2.17-4.98,3.77s-1.95,3.4-2.24,5.43l9.77,0.35c0.23-1.07,0.77-1.91,1.62-2.51c0.85-0.61,1.98-0.91,3.38-0.91
		c1.3,0,2.33,0.3,3.1,0.91s1.15,1.47,1.15,2.58v0.11c0,0.68-0.26,1.2-0.79,1.57s-1.37,0.65-2.52,0.84s-2.68,0.38-4.57,0.55
		c-1.69,0.14-3.28,0.42-4.77,0.83s-2.8,1.01-3.94,1.81c-1.14,0.79-2.04,1.83-2.69,3.1c-0.65,1.27-0.97,2.83-0.97,4.68
		c0,2.2,0.47,4.02,1.42,5.47c0.95,1.45,2.24,2.53,3.88,3.25c1.64,0.71,3.52,1.07,5.64,1.07c1.54,0,2.94-0.19,4.17-0.58
		c1.23-0.39,2.31-0.98,3.23-1.75s1.67-1.73,2.26-2.86h0.26v4.64h9.96V61.47c0-1.76-0.37-3.33-1.09-4.7
		C232.62,55.4,231.59,54.24,230.26,53.3z M223.94,72.26c0,1.08-0.27,2.03-0.82,2.85c-0.55,0.82-1.28,1.46-2.2,1.92
		c-0.92,0.46-1.95,0.69-3.09,0.69c-1.21,0-2.21-0.29-3-0.87s-1.18-1.42-1.18-2.51c0-0.72,0.18-1.35,0.55-1.87
		c0.37-0.53,0.9-0.96,1.6-1.29c0.7-0.33,1.55-0.58,2.55-0.74c0.49-0.07,1-0.15,1.54-0.24c0.53-0.09,1.05-0.19,1.56-0.3
		c0.5-0.12,0.97-0.24,1.4-0.37c0.43-0.13,0.79-0.27,1.09-0.43V72.26z"/>
	<polygon points="272.1,50.82 260.1,50.82 250.75,62.73 250.27,62.73 250.27,39.72 239.68,39.72 239.68,84.09 250.27,84.09 
		250.27,74.1 252.41,71.5 260.34,84.09 272.58,84.09 260.29,65.32 	"/>
	<path d="M302.11,67.58c-1.62-1.47-4.1-2.53-7.42-3.16l-6.41-1.21c-1.4-0.29-2.37-0.67-2.91-1.15c-0.54-0.48-0.81-1.04-0.79-1.69
		c-0.01-0.84,0.41-1.5,1.27-1.99c0.86-0.49,1.9-0.74,3.13-0.74c0.94,0,1.77,0.16,2.48,0.47s1.3,0.74,1.74,1.28
		c0.45,0.54,0.72,1.16,0.82,1.85l9.73-0.26c-0.27-3.29-1.71-5.88-4.31-7.77c-2.6-1.88-6.15-2.83-10.66-2.83
		c-3,0-5.61,0.42-7.82,1.26c-2.21,0.84-3.91,2.05-5.11,3.63c-1.2,1.58-1.79,3.48-1.78,5.71c-0.01,2.54,0.79,4.63,2.43,6.27
		c1.63,1.64,4.12,2.76,7.45,3.37l5.81,1.1c1.39,0.26,2.4,0.62,3.05,1.07c0.65,0.46,0.98,1.06,1,1.81c-0.01,0.84-0.45,1.51-1.3,2.01
		c-0.85,0.51-1.96,0.76-3.31,0.76c-1.5,0-2.74-0.32-3.7-0.95c-0.97-0.64-1.57-1.56-1.8-2.77l-10.46,0.26
		c0.39,3.29,1.95,5.92,4.69,7.87c2.74,1.96,6.48,2.94,11.23,2.94c2.98,0,5.62-0.47,7.93-1.4s4.13-2.24,5.47-3.93
		s2.01-3.67,2.03-5.96C304.55,71,303.73,69.05,302.11,67.58z"/>
	<path d="M48.13,0C24.43,0.13,5,19.43,5,43.26c0,9.71,3.25,19.13,9.28,26.79L0.82,82.21c-1.69,1.52-0.6,4.31,1.66,4.31h45.65
		c23.84,0,43.13-19.26,43.26-43.13c0-11.47-4.41-22.34-12.66-30.6C70.64,4.57,59.73,0.13,48.13,0z M48.13,79.89H48l-34.74-0.13
		l10.31-9.28l-2.22-2.49c-6.17-6.76-9.71-15.61-9.71-24.86c0-20.02,16.48-36.33,36.5-36.33c9.85,0,19,3.81,25.89,10.74
		c6.93,6.93,10.74,16.18,10.61,25.89C84.76,63.58,68.28,79.89,48.13,79.89z"/>
	<circle cx="35.33" cy="44.22" r="3.51"/>
	<circle cx="46.84" cy="44.22" r="3.51"/>
	<circle cx="58.34" cy="44.22" r="3.51"/>
</g>
</svg>
